Coordinates
version=1
nRows=34
nColumns=19
inDegrees=yes

Units are S.I. units (second, meters, Newtons, ...)
If the header above contains a line with 'inDegrees', this indicates whether rotational values are in degrees (yes) or radians (no).

endheader
time	pelvis_tilt	pelvis_list	pelvis_rotation	pelvis_tx	pelvis_ty	pelvis_tz	hip_flexion_r	hip_adduction_r	hip_rotation_r	knee_angle_r	knee_angle_r_beta	ankle_angle_r	hip_flexion_l	hip_adduction_l	hip_rotation_l	knee_angle_l	knee_angle_l_beta	ankle_angle_l
     15.13333333	     -8.68853377	     -4.85788381	     -4.50696856	      2.19278055	      1.04833384	      1.00172301	     29.02404466	     10.22747999	     -5.80076854	      8.65018240	      0.15097416	     -0.45887892	    -13.05721499	    -10.70745790	    -18.02430162	     50.23623913	      0.87678778	    -15.50581201
     15.14000000	     -8.34790653	     -5.07429285	     -4.79857944	      2.19180682	      1.04449960	      1.00230710	     29.68226909	     10.33560625	     -7.25665793	     12.02980357	      0.20995968	      0.23581492	    -12.59310637	    -11.33978838	    -17.89514542	     53.28395077	      0.92998038	    -15.09505705
     15.14666667	     -7.69857434	     -5.38243280	     -5.09632457	      2.19070451	      1.04069566	      1.00261574	     30.03345482	     10.40690749	     -8.66678647	     15.76441164	      0.27514089	      1.06468963	    -12.41156368	    -12.01740413	    -17.80100188	     56.29667068	      0.98256226	    -14.62635979
     15.15333333	     -7.03123347	     -5.62846887	     -5.40720044	      2.18943966	      1.03658278	      1.00269323	     30.38428630	     10.32137780	     -9.88331064	     19.79532680	      0.34549363	      2.08804542	    -12.14422847	    -12.58323683	    -17.63399027	     59.30592891	      1.03508373	    -14.04187856
     15.16000000	     -6.34242545	     -5.83551428	     -5.71651492	      2.18803714	      1.03227250	      1.00253094	     30.63838657	     10.14053741	    -10.80721232	     23.89185702	      0.41699157	      3.30268096	    -11.79313384	    -13.05782096	    -17.38693973	     62.29555898	      1.08726261	    -13.33057452
     15.16666667	     -5.39632530	     -6.28900581	     -6.06509344	      2.18665774	      1.02819820	      1.00223420	     30.37631626	     10.21651337	    -11.40942060	     27.71992962	      0.48380404	      4.67180052	    -11.72807254	    -13.75852702	    -17.29157112	     65.20368085	      1.13801892	    -12.49026698
     15.17333333	     -5.17834752	     -6.20175561	     -6.34869621	      2.18488264	      1.02329972	      1.00176065	     30.91047936	      9.78961756	    -11.60404482	     31.60641412	      0.55163599	      6.28322374	    -10.51348766	    -13.83538514	    -16.63784849	     68.19372337	      1.19020500	    -11.54748498
     15.18000000	     -4.55887945	     -6.56290956	     -6.66997429	      2.18319227	      1.01909338	      1.00119754	     30.64957188	      9.87311471	    -11.59221337	     34.92964155	      0.60963725	      8.03632852	     -9.81309828	    -14.37153963	    -16.26048211	     71.03534593	      1.23980067	    -10.45256535
     15.18666667	     -4.58740665	     -6.61725790	     -6.97917660	      2.18118958	      1.01445225	      1.00076181	     30.95511207	      9.75587516	    -11.35357932	     37.99125401	      0.66307247	      9.93185535	     -8.11629410	    -14.58970268	    -15.54413982	     73.92709201	      1.29027116	     -9.44049402
     15.19333333	     -4.23904596	     -7.04843333	     -7.29630219	      2.17933809	      1.01073779	      1.00025135	     30.47015365	     10.05502364	    -11.04812943	     40.43851929	      0.70578531	     11.98537166	     -6.89704705	    -15.16802998	    -14.99416205	     76.59000372	      1.33674774	     -8.32205810
     15.20000000	     -4.75998132	     -7.13395397	     -7.45651880	      2.17716325	      1.00658108	      0.99967609	     30.79070999	     10.05653541	    -10.71044305	     42.56273613	      0.74285988	     13.87652595	     -4.34488856	    -15.44481618	    -13.94398757	     79.31386187	      1.38428803	     -7.39007134
     15.20666667	     -5.14542571	     -7.34542275	     -7.61200753	      2.17509263	      1.00321836	      0.99914903	     30.64409586	     10.21146135	    -10.36471320	     44.15293411	      0.77061407	     15.83848269	     -1.91883911	    -15.80549541	    -12.92446108	     81.78920952	      1.42749100	     -6.49843642
     15.21333333	     -5.60056943	     -7.60899712	     -7.60503802	      2.17309414	      1.00048714	      0.99853754	     30.29455917	     10.37241312	    -10.17582690	     45.23534958	      0.78950579	     17.66964248	      0.72301780	    -16.20596067	    -11.70476547	     84.07385053	      1.46736551	     -5.70426892
     15.22000000	     -6.17668908	     -7.75779071	     -7.52396372	      2.17111880	      0.99832388	      0.99794005	     29.86259411	     10.42496675	     -9.99324499	     45.91916270	      0.80144058	     19.37373211	      3.61552993	    -16.42784675	    -10.37100751	     86.11253429	      1.50294725	     -5.06061000
     15.22666667	     -6.81112675	     -7.80108701	     -7.35719619	      2.16925487	      0.99682319	      0.99735333	     29.28296471	     10.36951560	     -9.82513641	     46.20757638	      0.80647435	     20.89277412	      6.65092399	    -16.47302903	     -8.97755193	     87.86227860	      1.53348605	     -4.50743621
     15.23333333	     -7.23270200	     -7.87831885	     -6.99420412	      2.16761359	      0.99637743	      0.99664603	     28.23136669	     10.27415632	     -9.81087108	     46.03691823	      0.80349580	     22.15333970	      9.49720032	    -16.45145312	     -7.49312139	     89.27362826	      1.55811875	     -4.04012317
     15.24000000	     -7.54293752	     -7.83352047	     -6.56424621	      2.16614538	      0.99674485	      0.99595851	     26.91138577	     10.04557763	     -9.80614771	     45.58187746	      0.79555384	     23.18181433	     12.20573601	    -16.21529116	     -6.08593832	     90.32823655	      1.57652514	     -3.62254144
     15.24666667	     -7.77070190	     -7.64072896	     -6.10727649	      2.16496814	      0.99792574	      0.99536845	     25.35079066	      9.70847011	     -9.71952867	     44.82902059	      0.78241401	     23.95412928	     14.74201308	    -15.76582209	     -4.85692550	     90.99512670	      1.58816456	     -3.22975775
     15.25333333	     -7.84929253	     -7.34458118	     -5.58896713	      2.16395477	      0.99990929	      0.99479173	     23.52572238	      9.28307070	     -9.59679454	     43.84846580	      0.76530010	     24.40728793	     17.03818508	    -15.13245395	     -3.76245287	     91.30544461	      1.59358063	     -2.83316189
     15.26000000	     -7.97134572	     -6.82558264	     -5.45125591	      2.16333313	      1.00255259	      0.99483840	     21.64286895	      8.84003166	     -8.98510544	     42.68502985	      0.74499431	     24.47508726	     19.05763254	    -14.43846752	     -3.37407229	     91.15981116	      1.59103885	     -2.38828835
     15.26666667	     -7.50773000	     -6.46844398	     -4.46342184	      2.16286378	      1.00626119	      0.99376032	     19.01845095	      8.19925871	     -9.29837251	     41.21153160	      0.71927692	     24.38455470	     20.63511820	    -13.49326614	     -2.22824229	     90.78142174	      1.58443471	     -1.90661949
     15.27333333	     -7.19495985	     -5.86569657	     -3.90378973	      2.16276740	      1.01031319	      0.99333338	     16.52581215	      7.52562193	     -9.12725421	     39.69322939	      0.69277754	     23.85044009	     22.02017668	    -12.50276859	     -1.81375052	     89.98343858	      1.57050728	     -1.36806781
     15.28000000	     -6.67599489	     -5.22244813	     -3.41254507	      2.16297621	      1.01500300	      0.99299573	     13.73706336	      6.85636385	     -8.85484670	     37.99811640	      0.66319224	     22.98011600	     22.97558371	    -11.52323395	     -1.68729248	     88.84847385	      1.55069840	     -0.76190978
     15.28666667	     -6.17183998	     -4.48879213	     -2.92997726	      2.16337911	      1.01994372	      0.99266841	     10.96145245	      6.09649280	     -8.63072921	     36.24748752	      0.63263800	     21.74209165	     23.79589954	    -10.47694923	     -1.74748889	     87.42964597	      1.52593519	     -0.12480893
     15.29333333	     -5.70766090	     -3.75041039	     -2.55881396	      2.16403078	      1.02507001	      0.99249636	      8.22369990	      5.36934454	     -8.34278040	     34.44183712	      0.60112346	     20.11645161	     24.47067091	     -9.52180183	     -2.05954560	     85.72807377	      1.49623715	      0.53564999
     15.30000000	     -5.20300414	     -2.99634857	     -2.21507319	      2.16494415	      1.03035523	      0.99233751	      5.44098111	      4.63526963	     -8.05924511	     32.57844094	      0.56860106	     18.10323611	     24.94792050	     -8.59026647	     -2.52994556	     83.78212670	      1.46227397	      1.21077634
     15.30666667	     -4.81297856	     -2.23588430	     -1.94283247	      2.16598673	      1.03559181	      0.99224167	      2.83617716	      3.89233887	     -7.79244953	     30.74699129	      0.53663623	     15.73901029	     25.40627884	     -7.70841888	     -3.16336156	     81.60798237	      1.42432799	      1.86935493
     15.31333333	     -4.51596360	     -1.48795663	     -1.68867588	      2.16716128	      1.04075133	      0.99212399	      0.39582628	      3.14594555	     -7.61558898	     28.96111853	      0.50546687	     13.02453736	     25.84220606	     -6.85719308	     -3.88121429	     79.22367722	      1.38271401	      2.47642827
     15.32000000	     -4.29150704	     -0.76406566	     -1.53152181	      2.16842799	      1.04584405	      0.99211444	     -1.88146226	      2.42314136	     -7.37271234	     27.24473433	      0.47551032	      9.98784668	     26.21774358	     -6.08442095	     -4.74922637	     76.62706266	      1.33739454	      3.03006424
     15.32666667	     -4.16465950	     -0.06307948	     -1.37862398	      2.16977990	      1.05077829	      0.99199906	     -3.95745509	      1.69047032	     -7.24417852	     25.62820974	      0.44729664	      6.73713192	     26.58308957	     -5.32463555	     -5.65837569	     73.83137572	      1.28860060	      3.57291391
     15.33333333	     -4.19290665	      0.58547103	     -1.26892017	      2.17110626	      1.05551982	      0.99189706	     -5.74127995	      0.99838811	     -7.10119730	     24.14296591	      0.42137425	      3.28290862	     27.01499383	     -4.63429130	     -6.62597337	     70.85702413	      1.23668837	      3.95457506
     15.34000000	     -4.99323462	      1.07183978	     -1.14943140	      2.17227139	      1.05913191	      0.99160523	     -6.42750671	      0.42938510	     -7.05587638	     23.09501278	      0.40308401	     -0.24607626	     28.25730149	     -4.05550148	     -7.45962436	     67.82219630	      1.18372063	      4.38791532
     15.34666667	     -4.42608228	      1.72867412	     -1.06656730	      2.17371804	      1.06453632	      0.99142021	     -8.73610176	     -0.29440100	     -6.88615656	     21.63557103	      0.37761195	     -3.88230614	     27.75276409	     -3.28750217	     -8.48568684	     64.34051138	      1.12295377	      4.64196074
     15.35333333	     -5.20999041	      2.10059966	     -0.90622675	      2.17476283	      1.06803239	      0.99089725	     -9.21638309	     -0.77392930	     -6.85246462	     20.83530075	      0.36364460	     -7.40644081	     28.77867387	     -2.72699746	     -9.22264898	     60.93130130	      1.06345183	      4.82804605
